<svg width="18" height="18" viewBox="0 0 18 18" fill="none" xmlns="http://www.w3.org/2000/svg">
<path d="M8.91667 16.8333C13.289 16.8333 16.8333 13.289 16.8333 8.91667C16.8333 4.54429 13.289 1 8.91667 1C4.54429 1 1 4.54429 1 8.91667C1 13.289 4.54429 16.8333 8.91667 16.8333Z" stroke="#00FF0A" stroke-linejoin="round"/>
<path d="M11.6875 11.6875C11.6875 11.6875 10.8958 13.2708 8.91667 13.2708C6.9375 13.2708 6.14583 11.6875 6.14583 11.6875M7.72917 7.72916C7.72917 7.72916 7.33333 6.14583 6.14583 6.14583C4.95833 6.14583 4.5625 7.72916 4.5625 7.72916M13.2708 7.72916C13.2708 7.72916 12.875 6.14583 11.6875 6.14583C10.5 6.14583 10.1042 7.72916 10.1042 7.72916" stroke="#00FF0A" stroke-linecap="round" stroke-linejoin="round"/>
</svg>
