<svg width="140" height="140" viewBox="0 0 140 140" fill="none" xmlns="http://www.w3.org/2000/svg">
<path d="M48.4596 90.5525C52.7494 95.1717 58.407 98.4703 64.9377 99.6892C71.4684 100.908 77.935 99.8725 83.6022 97.1117" stroke="#6DCDEC" stroke-width="1.5" stroke-linecap="round"/>
<path d="M95.472 65.9909C94.5668 70.8406 91.2082 74.2868 87.9751 73.6833C84.7419 73.0799 82.8526 68.6541 83.7578 63.8045C84.6629 58.9548 88.0216 55.5086 91.2547 56.112C94.4878 56.7155 96.3771 61.1412 95.472 65.9909Z" fill="#6DCDEC"/>
<path d="M52.8324 67.1241C56.0672 67.7279 59.4237 64.2838 60.3293 59.4317C61.235 54.5795 59.3468 50.1566 56.112 49.5528C52.8772 48.949 49.5208 52.3931 48.6151 57.2453C47.7095 62.0974 49.5976 66.5204 52.8324 67.1241Z" fill="#6DCDEC"/>
<path d="M50.5876 14.2034C60.4486 10.7156 71.0566 9.89768 81.3358 11.8326C113.685 17.8704 135.013 48.9869 128.975 81.3357C122.937 113.685 91.8205 135.013 59.4717 128.975C27.1229 122.937 5.79491 91.8204 11.8327 59.4716C13.8234 48.8058 18.5441 39.3284 25.1355 31.6488" stroke="#6DCDEC" stroke-width="1.5" stroke-linecap="round"/>
</svg>
